<?xml version="1.0" encoding="UTF-8" standalone="no"?>
<svg width="1024" height="1024" viewBox="0 0 1024 1024" xmlns="http://www.w3.org/2000/svg">
  <rect width="1024" height="1024" rx="200" ry="200" fill="#4a86e8"/>
  <path d="M512 212c-33.1 0-60 26.9-60 60v480c0 33.1 26.9 60 60 60s60-26.9 60-60V272c0-33.1-26.9-60-60-60zm-180 120c-33.1 0-60 26.9-60 60v240c0 33.1 26.9 60 60 60s60-26.9 60-60V392c0-33.1-26.9-60-60-60zm360 0c-33.1 0-60 26.9-60 60v240c0 33.1 26.9 60 60 60s60-26.9 60-60V392c0-33.1-26.9-60-60-60zm-540 60c-33.1 0-60 26.9-60 60v120c0 33.1 26.9 60 60 60s60-26.9 60-60V452c0-33.1-26.9-60-60-60zm720 0c-33.1 0-60 26.9-60 60v120c0 33.1 26.9 60 60 60s60-26.9 60-60V452c0-33.1-26.9-60-60-60z" fill="white"/>
</svg>
